<?xml version="1.0" encoding="UTF-8" standalone="no"?>
<!DOCTYPE svg PUBLIC "-//W3C//DTD SVG 1.1//EN"
 "http://www.w3.org/Graphics/SVG/1.1/DTD/svg11.dtd">
<!-- Generated by graphviz version 2.40.1 (20161225.0304)
 -->
<!-- Title: snakemake_dag Pages: 1 -->
<svg width="83pt" height="404pt"
 viewBox="0.00 0.00 83.49 404.00" xmlns="http://www.w3.org/2000/svg" xmlns:xlink="http://www.w3.org/1999/xlink">
<g id="graph0" class="graph" transform="scale(1 1) rotate(0) translate(4 400)">
<title>snakemake_dag</title>
<polygon fill="#ffffff" stroke="transparent" points="-4,4 -4,-400 79.4873,-400 79.4873,4 -4,4"/>
<!-- 0 -->
<g id="node1" class="node">
<title>0</title>
<path fill="none" stroke="#59d856" stroke-width="2" d="M58.1646,-36C58.1646,-36 17.3227,-36 17.3227,-36 11.3227,-36 5.3227,-30 5.3227,-24 5.3227,-24 5.3227,-12 5.3227,-12 5.3227,-6 11.3227,0 17.3227,0 17.3227,0 58.1646,0 58.1646,0 64.1646,0 70.1646,-6 70.1646,-12 70.1646,-12 70.1646,-24 70.1646,-24 70.1646,-30 64.1646,-36 58.1646,-36"/>
<text text-anchor="middle" x="37.7437" y="-15" font-family="sans" font-size="10.00" fill="#000000">build_trees</text>
</g>
<!-- 1 -->
<g id="node2" class="node">
<title>1</title>
<path fill="none" stroke="#56d8a9" stroke-width="2" d="M60.6695,-108C60.6695,-108 14.8178,-108 14.8178,-108 8.8178,-108 2.8178,-102 2.8178,-96 2.8178,-96 2.8178,-84 2.8178,-84 2.8178,-78 8.8178,-72 14.8178,-72 14.8178,-72 60.6695,-72 60.6695,-72 66.6695,-72 72.6695,-78 72.6695,-84 72.6695,-84 72.6695,-96 72.6695,-96 72.6695,-102 66.6695,-108 60.6695,-108"/>
<text text-anchor="middle" x="37.7437" y="-87" font-family="sans" font-size="10.00" fill="#000000">amino_align</text>
</g>
<!-- 1&#45;&gt;0 -->
<g id="edge1" class="edge">
<title>1&#45;&gt;0</title>
<path fill="none" stroke="#c0c0c0" stroke-width="2" d="M37.7437,-71.8314C37.7437,-64.131 37.7437,-54.9743 37.7437,-46.4166"/>
<polygon fill="#c0c0c0" stroke="#c0c0c0" stroke-width="2" points="41.2438,-46.4132 37.7437,-36.4133 34.2438,-46.4133 41.2438,-46.4132"/>
</g>
<!-- 2 -->
<g id="node3" class="node">
<title>2</title>
<path fill="none" stroke="#afd856" stroke-width="2" d="M59.4435,-180C59.4435,-180 16.0438,-180 16.0438,-180 10.0438,-180 4.0438,-174 4.0438,-168 4.0438,-168 4.0438,-156 4.0438,-156 4.0438,-150 10.0438,-144 16.0438,-144 16.0438,-144 59.4435,-144 59.4435,-144 65.4435,-144 71.4435,-150 71.4435,-156 71.4435,-156 71.4435,-168 71.4435,-168 71.4435,-174 65.4435,-180 59.4435,-180"/>
<text text-anchor="middle" x="37.7437" y="-159" font-family="sans" font-size="10.00" fill="#000000">cat_cleaner</text>
</g>
<!-- 2&#45;&gt;1 -->
<g id="edge2" class="edge">
<title>2&#45;&gt;1</title>
<path fill="none" stroke="#c0c0c0" stroke-width="2" d="M37.7437,-143.8314C37.7437,-136.131 37.7437,-126.9743 37.7437,-118.4166"/>
<polygon fill="#c0c0c0" stroke="#c0c0c0" stroke-width="2" points="41.2438,-118.4132 37.7437,-108.4133 34.2438,-118.4133 41.2438,-118.4132"/>
</g>
<!-- 3 -->
<g id="node4" class="node">
<title>3</title>
<path fill="none" stroke="#56a9d8" stroke-width="2" d="M52.7437,-252C52.7437,-252 22.7437,-252 22.7437,-252 16.7437,-252 10.7437,-246 10.7437,-240 10.7437,-240 10.7437,-228 10.7437,-228 10.7437,-222 16.7437,-216 22.7437,-216 22.7437,-216 52.7437,-216 52.7437,-216 58.7437,-216 64.7437,-222 64.7437,-228 64.7437,-228 64.7437,-240 64.7437,-240 64.7437,-246 58.7437,-252 52.7437,-252"/>
<text text-anchor="middle" x="37.7437" y="-231" font-family="sans" font-size="10.00" fill="#000000">cat_files</text>
</g>
<!-- 3&#45;&gt;2 -->
<g id="edge3" class="edge">
<title>3&#45;&gt;2</title>
<path fill="none" stroke="#c0c0c0" stroke-width="2" d="M37.7437,-215.8314C37.7437,-208.131 37.7437,-198.9743 37.7437,-190.4166"/>
<polygon fill="#c0c0c0" stroke="#c0c0c0" stroke-width="2" points="41.2438,-190.4132 37.7437,-180.4133 34.2438,-190.4133 41.2438,-190.4132"/>
</g>
<!-- 4 -->
<g id="node5" class="node">
<title>4</title>
<path fill="none" stroke="#d8ac56" stroke-width="2" d="M63.7325,-324C63.7325,-324 11.7548,-324 11.7548,-324 5.7548,-324 -.2452,-318 -.2452,-312 -.2452,-312 -.2452,-300 -.2452,-300 -.2452,-294 5.7548,-288 11.7548,-288 11.7548,-288 63.7325,-288 63.7325,-288 69.7325,-288 75.7325,-294 75.7325,-300 75.7325,-300 75.7325,-312 75.7325,-312 75.7325,-318 69.7325,-324 63.7325,-324"/>
<text text-anchor="middle" x="37.7437" y="-303" font-family="sans" font-size="10.00" fill="#000000">json_to_fasta</text>
</g>
<!-- 4&#45;&gt;3 -->
<g id="edge4" class="edge">
<title>4&#45;&gt;3</title>
<path fill="none" stroke="#c0c0c0" stroke-width="2" d="M37.7437,-287.8314C37.7437,-280.131 37.7437,-270.9743 37.7437,-262.4166"/>
<polygon fill="#c0c0c0" stroke="#c0c0c0" stroke-width="2" points="41.2438,-262.4132 37.7437,-252.4133 34.2438,-262.4133 41.2438,-262.4132"/>
</g>
<!-- 5 -->
<g id="node6" class="node">
<title>5</title>
<path fill="none" stroke="#d85656" stroke-width="2" d="M60.604,-396C60.604,-396 14.8833,-396 14.8833,-396 8.8833,-396 2.8833,-390 2.8833,-384 2.8833,-384 2.8833,-372 2.8833,-372 2.8833,-366 8.8833,-360 14.8833,-360 14.8833,-360 60.604,-360 60.604,-360 66.604,-360 72.604,-366 72.604,-372 72.604,-372 72.604,-384 72.604,-384 72.604,-390 66.604,-396 60.604,-396"/>
<text text-anchor="middle" x="37.7437" y="-375" font-family="sans" font-size="10.00" fill="#000000">xml_to_json</text>
</g>
<!-- 5&#45;&gt;4 -->
<g id="edge5" class="edge">
<title>5&#45;&gt;4</title>
<path fill="none" stroke="#c0c0c0" stroke-width="2" d="M37.7437,-359.8314C37.7437,-352.131 37.7437,-342.9743 37.7437,-334.4166"/>
<polygon fill="#c0c0c0" stroke="#c0c0c0" stroke-width="2" points="41.2438,-334.4132 37.7437,-324.4133 34.2438,-334.4133 41.2438,-334.4132"/>
</g>
</g>
</svg>
